<svg width="16" height="16" viewBox="0 0 16 16" fill="none" xmlns="http://www.w3.org/2000/svg">
<path d="M1.77778 16C1.28889 16 0.87037 15.8433 0.522222 15.53C0.174074 15.2167 0 14.84 0 14.4V3.2C0 2.76 0.174074 2.38333 0.522222 2.07C0.87037 1.75667 1.28889 1.6 1.77778 1.6H2.66667V0H4.44444V1.6H11.5556V0H13.3333V1.6H14.2222C14.7111 1.6 15.1296 1.75667 15.4778 2.07C15.8259 2.38333 16 2.76 16 3.2V14.4C16 14.84 15.8259 15.2167 15.4778 15.53C15.1296 15.8433 14.7111 16 14.2222 16H1.77778ZM1.77778 14.4H14.2222V6.4H1.77778V14.4ZM1.77778 4.8H14.2222V3.2H1.77778V4.8ZM8 9.6C7.74815 9.6 7.53704 9.52333 7.36667 9.37C7.1963 9.21667 7.11111 9.02667 7.11111 8.8C7.11111 8.57333 7.1963 8.38333 7.36667 8.23C7.53704 8.07667 7.74815 8 8 8C8.25185 8 8.46296 8.07667 8.63333 8.23C8.8037 8.38333 8.88889 8.57333 8.88889 8.8C8.88889 9.02667 8.8037 9.21667 8.63333 9.37C8.46296 9.52333 8.25185 9.6 8 9.6ZM4.44444 9.6C4.19259 9.6 3.98148 9.52333 3.81111 9.37C3.64074 9.21667 3.55556 9.02667 3.55556 8.8C3.55556 8.57333 3.64074 8.38333 3.81111 8.23C3.98148 8.07667 4.19259 8 4.44444 8C4.6963 8 4.90741 8.07667 5.07778 8.23C5.24815 8.38333 5.33333 8.57333 5.33333 8.8C5.33333 9.02667 5.24815 9.21667 5.07778 9.37C4.90741 9.52333 4.6963 9.6 4.44444 9.6ZM11.5556 9.6C11.3037 9.6 11.0926 9.52333 10.9222 9.37C10.7519 9.21667 10.6667 9.02667 10.6667 8.8C10.6667 8.57333 10.7519 8.38333 10.9222 8.23C11.0926 8.07667 11.3037 8 11.5556 8C11.8074 8 12.0185 8.07667 12.1889 8.23C12.3593 8.38333 12.4444 8.57333 12.4444 8.8C12.4444 9.02667 12.3593 9.21667 12.1889 9.37C12.0185 9.52333 11.8074 9.6 11.5556 9.6ZM8 12.8C7.74815 12.8 7.53704 12.7233 7.36667 12.57C7.1963 12.4167 7.11111 12.2267 7.11111 12C7.11111 11.7733 7.1963 11.5833 7.36667 11.43C7.53704 11.2767 7.74815 11.2 8 11.2C8.25185 11.2 8.46296 11.2767 8.63333 11.43C8.8037 11.5833 8.88889 11.7733 8.88889 12C8.88889 12.2267 8.8037 12.4167 8.63333 12.57C8.46296 12.7233 8.25185 12.8 8 12.8ZM4.44444 12.8C4.19259 12.8 3.98148 12.7233 3.81111 12.57C3.64074 12.4167 3.55556 12.2267 3.55556 12C3.55556 11.7733 3.64074 11.5833 3.81111 11.43C3.98148 11.2767 4.19259 11.2 4.44444 11.2C4.6963 11.2 4.90741 11.2767 5.07778 11.43C5.24815 11.5833 5.33333 11.7733 5.33333 12C5.33333 12.2267 5.24815 12.4167 5.07778 12.57C4.90741 12.7233 4.6963 12.8 4.44444 12.8ZM11.5556 12.8C11.3037 12.8 11.0926 12.7233 10.9222 12.57C10.7519 12.4167 10.6667 12.2267 10.6667 12C10.6667 11.7733 10.7519 11.5833 10.9222 11.43C11.0926 11.2767 11.3037 11.2 11.5556 11.2C11.8074 11.2 12.0185 11.2767 12.1889 11.43C12.3593 11.5833 12.4444 11.7733 12.4444 12C12.4444 12.2267 12.3593 12.4167 12.1889 12.57C12.0185 12.7233 11.8074 12.8 11.5556 12.8Z" fill="black"/>
</svg>
