<svg width="16" height="16" viewBox="0 0 16 16" fill="none" xmlns="http://www.w3.org/2000/svg">
<path d="M1.6 16C1.16 16 0.783333 15.8433 0.47 15.53C0.156667 15.2167 0 14.84 0 14.4V3.2C0 2.76 0.156667 2.38333 0.47 2.07C0.783333 1.75667 1.16 1.6 1.6 1.6H2.4V0H4V1.6H10.4V0H12V1.6H12.8C13.24 1.6 13.6167 1.75667 13.93 2.07C14.2433 2.38333 14.4 2.76 14.4 3.2V7.2H12.8V6.4H1.6V14.4H7.2V16H1.6ZM1.6 4.8H12.8V3.2H1.6V4.8ZM8.8 16V13.54L13.22 9.14C13.34 9.02 13.4733 8.93333 13.62 8.88C13.7667 8.82667 13.9133 8.8 14.06 8.8C14.22 8.8 14.3733 8.83 14.52 8.89C14.6667 8.95 14.8 9.04 14.92 9.16L15.66 9.9C15.7667 10.02 15.85 10.1533 15.91 10.3C15.97 10.4467 16 10.5933 16 10.74C16 10.8867 15.9733 11.0367 15.92 11.19C15.8667 11.3433 15.78 11.48 15.66 11.6L11.26 16H8.8ZM10 14.8H10.76L13.18 12.36L12.82 11.98L12.44 11.62L10 14.04V14.8ZM12.82 11.98L12.44 11.62L13.18 12.36L12.82 11.98Z" fill="black"/>
</svg>
