<svg width="16" height="18" viewBox="0 0 16 18" fill="none" xmlns="http://www.w3.org/2000/svg">
<path d="M8 9C8.55 9 9.02083 8.82375 9.4125 8.47125C9.80417 8.11875 10 7.695 10 7.2C10 6.705 9.80417 6.28125 9.4125 5.92875C9.02083 5.57625 8.55 5.4 8 5.4C7.45 5.4 6.97917 5.57625 6.5875 5.92875C6.19583 6.28125 6 6.705 6 7.2C6 7.695 6.19583 8.11875 6.5875 8.47125C6.97917 8.82375 7.45 9 8 9ZM8 15.615C10.0333 13.935 11.5417 12.4088 12.525 11.0363C13.5083 9.66375 14 8.445 14 7.38C14 5.745 13.4208 4.40625 12.2625 3.36375C11.1042 2.32125 9.68333 1.8 8 1.8C6.31667 1.8 4.89583 2.32125 3.7375 3.36375C2.57917 4.40625 2 5.745 2 7.38C2 8.445 2.49167 9.66375 3.475 11.0363C4.45833 12.4088 5.96667 13.935 8 15.615ZM8 18C5.31667 15.945 3.3125 14.0363 1.9875 12.2738C0.6625 10.5113 0 8.88 0 7.38C0 5.13 0.804167 3.3375 2.4125 2.0025C4.02083 0.6675 5.88333 0 8 0C10.1167 0 11.9792 0.6675 13.5875 2.0025C15.1958 3.3375 16 5.13 16 7.38C16 8.88 15.3375 10.5113 14.0125 12.2738C12.6875 14.0363 10.6833 15.945 8 18Z" fill="black"/>
</svg>
