<svg width="154" height="98" viewBox="0 0 154 98" fill="none" xmlns="http://www.w3.org/2000/svg">
<g clip-path="url(#clip0_65_348)">
<g filter="url(#filter0_dd_65_348)">
<path d="M51.1458 55.5843L72.3859 40.6986L101.621 63.6848C102.037 64.0116 102.279 64.511 102.279 65.0397V90.6833C102.279 91.6352 101.508 92.4069 100.556 92.4069H84.3363C83.3843 92.4069 82.6127 91.6352 82.6127 90.6833V76.1109C82.6127 75.159 81.8409 74.3873 80.889 74.3873H63.0961C62.1442 74.3873 61.3725 75.159 61.3725 76.1109V86.1392" stroke="#ECE21E" stroke-width="2.29815"/>
</g>
<path d="M26.9399 59.0892L6.72742 53.5015L7.96621 48.9561L28.1787 54.5438L26.9399 59.0892ZM23.3746 72.1711L3.16211 66.5834L4.40091 62.038L24.6134 67.6257L23.3746 72.1711ZM16.2263 66.1714L12.2392 65.0692L15.0038 54.9252L18.9909 56.0274L16.2263 66.1714Z" fill="#2E884F"/>
<path d="M38.5081 41.4903C37.2143 42.8763 35.8475 43.8634 34.4077 44.4517C32.967 45.0128 31.5436 45.2607 30.1376 45.1953C28.7176 45.1168 27.3919 44.811 26.1605 44.2779C24.9421 43.7309 23.9087 43.0558 23.0604 42.2526L22.6015 41.8181C21.6558 40.9227 20.8809 39.8725 20.2767 38.6674C19.6717 37.4352 19.3139 36.1206 19.2032 34.7236C19.0926 33.3266 19.2918 31.9064 19.8008 30.4631C20.2958 29.0066 21.1706 27.6063 22.4251 26.2623C23.6797 24.9184 25.0134 23.9526 26.4263 23.3652C27.8253 22.7645 29.2204 22.4767 30.6117 22.5018C32.003 22.5268 33.3278 22.8055 34.5863 23.3377C35.8308 23.8567 36.9259 24.5639 37.8715 25.4593L38.3305 25.8938C39.1788 26.697 39.905 27.7011 40.5092 28.9062C41.1134 30.1112 41.4982 31.425 41.6636 32.8475C41.8151 34.2569 41.6507 35.71 41.1704 37.2068C40.6893 38.6765 39.8018 40.1043 38.5081 41.4903ZM35.3165 38.4684C35.9961 37.7404 36.4786 36.9709 36.764 36.1599C37.0626 35.3349 37.1788 34.5087 37.1128 33.6814C37.0598 32.84 36.8393 32.0379 36.4513 31.2748C36.0632 30.5118 35.5354 29.8143 34.8679 29.1823C34.1587 28.5107 33.4075 28.0104 32.6143 27.6814C31.8203 27.3252 31.0117 27.153 30.1886 27.1648C29.3646 27.1495 28.5665 27.3169 27.7943 27.667C27.0221 28.0172 26.2962 28.5562 25.6167 29.2842C24.9372 30.0122 24.4477 30.7751 24.1483 31.573C23.8489 32.3708 23.7257 33.1904 23.7787 34.0317C23.8308 34.8459 24.0579 35.6411 24.4598 36.4173C24.8479 37.1803 25.3965 37.8976 26.1058 38.5691C26.7733 39.2011 27.4971 39.6887 28.2772 40.0317C29.0573 40.3747 29.8593 40.5539 30.6833 40.5693C31.5203 40.5706 32.3319 40.4028 33.118 40.0658C33.9041 39.7289 34.637 39.1964 35.3165 38.4684Z" fill="#2E884F"/>
<path d="M50.4692 30.8926L42.2415 11.6035L46.5653 9.73273L54.7931 29.0218L50.4692 30.8926ZM54.2658 29.25L52.6428 25.445L60.7104 21.9544L62.3334 25.7594L54.2658 29.25Z" fill="#2E884F"/>
<path d="M66.6235 25.1461L63.7083 4.37917L68.3724 3.71503L71.2877 24.482L66.6235 25.1461Z" fill="#2E884F"/>
<path d="M81.9426 24.3958L82.72 20.0699L86.5635 20.7705C87.5244 20.9457 88.4165 20.9623 89.2398 20.8203C90.0665 20.6596 90.8004 20.3651 91.4416 19.9369C92.0862 19.4899 92.6176 18.9151 93.0357 18.2127C93.4572 17.4914 93.7509 16.6689 93.9169 15.7453C94.0897 14.784 94.1025 13.9006 93.9554 13.0951C93.8083 12.2896 93.5089 11.5732 93.0574 10.9458C92.6059 10.3184 92.0176 9.80236 91.2925 9.39766C90.5709 8.97411 89.7296 8.67476 88.7687 8.49961L84.9252 7.799L85.7026 3.47309L89.2918 4.12734C91.157 4.46734 92.7376 5.03773 94.0336 5.83851C95.3296 6.63928 96.3639 7.59676 97.1366 8.71094C97.9092 9.82512 98.4116 11.0361 98.6436 12.3437C98.8978 13.6359 98.9047 14.9512 98.6642 16.2894L98.5524 16.9115C98.3288 18.1555 97.8714 19.3472 97.1802 20.4866C96.5113 21.6105 95.6177 22.5767 94.4995 23.3851C93.3847 24.1747 92.0777 24.7346 90.5785 25.0648C89.0793 25.395 87.397 25.3901 85.5318 25.0501L81.9426 24.3958ZM77.873 23.654L81.633 2.73126L86.2678 3.57612L82.5079 24.4988L77.873 23.654Z" fill="#2E884F"/>
<path d="M99.2385 28.0804L116.984 15.0097L123.166 19.4523L116.874 40.7546L112.908 37.9046L118.443 20.0557L119.307 21.4197L116.298 19.2571L117.907 19.6701L103.064 30.8298L99.2385 28.0804ZM106.513 26.9057L109.938 24.5562L116.61 29.3509L115.541 33.3937L106.513 26.9057Z" fill="#2E884F"/>
<path d="M118.085 42.9722L121.113 41.1505L138.202 43.6074L137.753 43.9777L138.318 42.565L138.222 43.3604L132.946 34.466L136.244 32.4813L144.466 46.3417L141.439 48.1635L124.335 45.6819L124.818 45.2572L124.209 46.7637L124.325 45.8894L129.821 55.1543L126.498 57.1538L118.085 42.9722Z" fill="#2E884F"/>
<path d="M128.029 62.2752L148.728 58.9105L149.455 63.4488L128.756 66.8136L128.029 62.2752ZM128.666 66.2463L132.522 65.6194L133.972 74.6678L130.116 75.2947L128.666 66.2463ZM137.257 64.8497L141.113 64.2228L142.459 72.6188L138.603 73.2457L137.257 64.8497ZM145.508 63.5084L149.364 62.8815L150.783 71.7314L146.926 72.3582L145.508 63.5084Z" fill="#2E884F"/>
</g>
<defs>
<filter id="filter0_dd_65_348" x="48.1882" y="39.2678" width="57.5379" height="58.8845" filterUnits="userSpaceOnUse" color-interpolation-filters="sRGB">
<feFlood flood-opacity="0" result="BackgroundImageFix"/>
<feColorMatrix in="SourceAlpha" type="matrix" values="0 0 0 0 0 0 0 0 0 0 0 0 0 0 0 0 0 0 127 0" result="hardAlpha"/>
<feOffset dy="2.29815"/>
<feGaussianBlur stdDeviation="1.14907"/>
<feComposite in2="hardAlpha" operator="out"/>
<feColorMatrix type="matrix" values="0 0 0 0 0.0470588 0 0 0 0 0.0470588 0 0 0 0 0.0509804 0 0 0 0.05 0"/>
<feBlend mode="normal" in2="BackgroundImageFix" result="effect1_dropShadow_65_348"/>
<feColorMatrix in="SourceAlpha" type="matrix" values="0 0 0 0 0 0 0 0 0 0 0 0 0 0 0 0 0 0 127 0" result="hardAlpha"/>
<feOffset dy="2.29815"/>
<feGaussianBlur stdDeviation="1.14907"/>
<feComposite in2="hardAlpha" operator="out"/>
<feColorMatrix type="matrix" values="0 0 0 0 0.0470588 0 0 0 0 0.0470588 0 0 0 0 0.0509804 0 0 0 0.1 0"/>
<feBlend mode="normal" in2="effect1_dropShadow_65_348" result="effect2_dropShadow_65_348"/>
<feBlend mode="normal" in="SourceGraphic" in2="effect2_dropShadow_65_348" result="shape"/>
</filter>
<clipPath id="clip0_65_348">
<rect width="154" height="98" fill="white"/>
</clipPath>
</defs>
</svg>
