<svg width="168" height="124" viewBox="0 0 168 124" fill="none" xmlns="http://www.w3.org/2000/svg">
<g filter="url(#filter0_dd_15_848)">
<path d="M56.1603 58.3307L74.5083 45.4331L99.6105 65.2292C100.066 65.5882 100.331 66.136 100.331 66.7157V88.3421C100.331 89.3876 99.4838 90.2352 98.4383 90.2352H85.2355C84.19 90.2352 83.3425 89.3876 83.3425 88.3421V76.5154C83.3425 75.4699 82.4949 74.6223 81.4494 74.6223H66.8876C65.8421 74.6223 64.9945 75.4699 64.9945 76.5154V84.8046" stroke="#ECE21E" stroke-width="2.52406"/>
</g>
<path d="M36.9304 62.6732L23.1599 58.8933L24.0091 55.7996L37.7796 59.5795L36.9304 62.6732ZM34.4866 71.5769L20.7161 67.797L21.5652 64.7033L35.3357 68.4832L34.4866 71.5769ZM29.6208 67.5028L26.9044 66.7572L28.7994 59.853L31.5158 60.5986L29.6208 67.5028Z" fill="#104224"/>
<path d="M45.9234 47.6065C45.0391 48.5472 44.1049 49.2172 43.1209 49.6166C42.1363 49.9976 41.1636 50.166 40.2028 50.1219C39.2324 50.0688 38.3265 49.8615 37.4851 49.5C36.6525 49.1289 35.9465 48.671 35.3669 48.1261L35.0534 47.8313C34.4073 47.2239 33.8779 46.5114 33.4652 45.6938C33.0519 44.8578 32.8076 43.9658 32.7322 43.0178C32.6568 42.0699 32.7931 41.1062 33.1411 40.1267C33.4797 39.1383 34.0777 38.188 34.9352 37.2759C35.7927 36.3637 36.7042 35.7082 37.6698 35.3094C38.6259 34.9016 39.5794 34.7061 40.5301 34.7229C41.4809 34.7397 42.3862 34.9286 43.2461 35.2895C44.0965 35.6415 44.8447 36.1213 45.4908 36.7287L45.8043 37.0235C46.3839 37.5684 46.8801 38.2496 47.2928 39.0672C47.7055 39.8848 47.9682 40.7762 48.0811 41.7414C48.1844 42.6977 48.0718 43.6838 47.7434 44.6995C47.4144 45.6969 46.8077 46.6659 45.9234 47.6065ZM43.7429 45.5565C44.2073 45.0624 44.5372 44.5402 44.7324 43.9898C44.9365 43.43 45.0161 42.8693 44.9711 42.3079C44.935 41.7371 44.7844 41.1928 44.5194 40.6751C44.2543 40.1574 43.8937 39.6841 43.4377 39.2554C42.9531 38.7998 42.4398 38.4604 41.8979 38.2373C41.3553 37.9957 40.8028 37.879 40.2403 37.8871C39.6772 37.8768 39.1318 37.9905 38.6041 38.2282C38.0763 38.466 37.5802 38.8319 37.1157 39.3259C36.6512 39.82 36.3166 40.3378 36.1119 40.8792C35.9072 41.4206 35.8229 41.9768 35.859 42.5477C35.8945 43.1001 36.0495 43.6397 36.3241 44.1663C36.5892 44.684 36.964 45.1706 37.4485 45.6262C37.9046 46.055 38.3992 46.3857 38.9322 46.6183C39.4652 46.851 40.0133 46.9724 40.5764 46.9827C41.1484 46.9835 41.703 46.8695 42.2403 46.6408C42.7775 46.412 43.2784 46.0506 43.7429 45.5565Z" fill="#104224"/>
<path d="M56.5768 38.1654L50.9405 25.045L53.888 23.7786L59.5244 36.8991L56.5768 38.1654ZM59.1649 37.0535L58.0531 34.4654L63.5528 32.1026L64.6647 34.6907L59.1649 37.0535Z" fill="#104224"/>
<path d="M69.6722 33.5038L67.6732 19.3646L70.8497 18.9155L72.8487 33.0547L69.6722 33.5038Z" fill="#104224"/>
<path d="M81.7479 32.737L82.2809 29.792L84.8987 30.2658C85.5532 30.3842 86.1609 30.3948 86.7218 30.2976C87.2851 30.1875 87.7854 29.9865 88.2225 29.6945C88.662 29.3897 89.0245 28.9981 89.3099 28.5196C89.5976 28.0283 89.7983 27.4683 89.9121 26.8395C90.0306 26.1851 90.04 25.5838 89.9404 25.0356C89.8408 24.4875 89.6375 24.0001 89.3304 23.5734C89.0233 23.1467 88.6229 22.796 88.1293 22.5211C87.638 22.2334 87.0651 22.0303 86.4107 21.9118L83.7928 21.438L84.3258 18.4929L86.7704 18.9354C88.0408 19.1654 89.1172 19.5523 89.9994 20.0964C90.8817 20.6404 91.5855 21.2913 92.111 22.049C92.6365 22.8068 92.9778 23.6306 93.1348 24.5204C93.307 25.3998 93.3106 26.295 93.1457 27.2061L93.0691 27.6296C92.9158 28.4765 92.6033 29.288 92.1315 30.0641C91.6749 30.8296 91.0654 31.488 90.303 32.0391C89.5429 32.5774 88.6521 32.9596 87.6305 33.1855C86.6089 33.4114 85.4629 33.4094 84.1925 33.1795L81.7479 32.737ZM78.9761 32.2353L81.554 17.9913L84.7108 18.5626L82.1329 32.8067L78.9761 32.2353Z" fill="#104224"/>
<path d="M96.6462 35.9218L108.778 27.0361L112.998 30.0472L108.684 44.5119L105.977 42.5803L109.771 30.4603L110.36 31.3856L108.306 29.9198L109.405 30.199L99.2576 37.7853L96.6462 35.9218ZM101.617 35.119L103.958 33.5216L108.512 36.7713L107.779 39.5164L101.617 35.119Z" fill="#104224"/>
<path d="M111.954 47.9121L114.019 46.678L125.691 48.3637L125.385 48.6148L125.769 47.656L125.704 48.196L122.093 42.1506L124.343 40.8062L129.971 50.2269L127.906 51.461L116.224 49.7585L116.554 49.4706L116.139 50.493L116.217 49.8994L119.98 56.1966L117.713 57.5511L111.954 47.9121Z" fill="#104224"/>
<path d="M120.058 63.4111L134.156 61.1356L134.655 64.2255L120.557 66.5009L120.058 63.4111ZM120.495 66.1147L123.121 65.6908L124.115 71.8512L121.489 72.2751L120.495 66.1147ZM126.346 65.1702L128.973 64.7463L129.895 70.4625L127.269 70.8865L126.346 65.1702ZM131.966 64.2632L134.592 63.8393L135.565 69.8645L132.938 70.2884L131.966 64.2632Z" fill="#104224"/>
<defs>
<filter id="filter0_dd_15_848" x="53.5415" y="43.86" width="49.9449" height="52.0543" filterUnits="userSpaceOnUse" color-interpolation-filters="sRGB">
<feFlood flood-opacity="0" result="BackgroundImageFix"/>
<feColorMatrix in="SourceAlpha" type="matrix" values="0 0 0 0 0 0 0 0 0 0 0 0 0 0 0 0 0 0 127 0" result="hardAlpha"/>
<feMorphology radius="0.631015" operator="erode" in="SourceAlpha" result="effect1_dropShadow_15_848"/>
<feOffset dy="2.52406"/>
<feGaussianBlur stdDeviation="1.26203"/>
<feComposite in2="hardAlpha" operator="out"/>
<feColorMatrix type="matrix" values="0 0 0 0 0.0470588 0 0 0 0 0.0470588 0 0 0 0 0.0509804 0 0 0 0.05 0"/>
<feBlend mode="normal" in2="BackgroundImageFix" result="effect1_dropShadow_15_848"/>
<feColorMatrix in="SourceAlpha" type="matrix" values="0 0 0 0 0 0 0 0 0 0 0 0 0 0 0 0 0 0 127 0" result="hardAlpha"/>
<feMorphology radius="0.631015" operator="erode" in="SourceAlpha" result="effect2_dropShadow_15_848"/>
<feOffset dy="2.52406"/>
<feGaussianBlur stdDeviation="1.26203"/>
<feComposite in2="hardAlpha" operator="out"/>
<feColorMatrix type="matrix" values="0 0 0 0 0.0470588 0 0 0 0 0.0470588 0 0 0 0 0.0509804 0 0 0 0.1 0"/>
<feBlend mode="normal" in2="effect1_dropShadow_15_848" result="effect2_dropShadow_15_848"/>
<feBlend mode="normal" in="SourceGraphic" in2="effect2_dropShadow_15_848" result="shape"/>
</filter>
</defs>
</svg>
