<svg width="266" height="241" viewBox="0 0 266 241" fill="none" xmlns="http://www.w3.org/2000/svg">
<g filter="url(#filter0_dd_6_215)">
<path d="M88 95.9091L124.969 70L175.854 110.008C176.578 110.577 177 111.446 177 112.367V157C177 158.657 175.657 160 174 160H145.769C144.112 160 142.769 158.657 142.769 157V131.636C142.769 129.98 141.426 128.636 139.769 128.636H108.8C107.143 128.636 105.8 129.98 105.8 131.636V149.091" stroke="#ECE21E" stroke-width="4"/>
</g>
<path d="M45.8375 102.001L10.6571 92.2752L12.8132 84.3638L47.9937 94.0893L45.8375 102.001ZM39.632 124.77L4.45155 115.045L6.60771 107.133L41.7882 116.859L39.632 124.77ZM27.1901 114.328L20.2504 112.409L25.0623 94.7531L32.0021 96.6716L27.1901 114.328Z" fill="#104224"/>
<path d="M65.9803 71.3557C63.7285 73.768 61.3495 75.4862 58.8434 76.5101C56.3358 77.4868 53.8584 77.9182 51.4111 77.8044C48.9397 77.6677 46.6323 77.1355 44.4888 76.2077C42.3682 75.2556 40.5696 74.0805 39.0931 72.6825L38.2944 71.9262C36.6484 70.3677 35.2996 68.5398 34.248 66.4424C33.1949 64.2977 32.5721 62.0096 32.3796 59.5781C32.1871 57.1465 32.5337 54.6746 33.4196 52.1624C34.2812 49.6273 35.8038 47.1902 37.9874 44.8509C40.171 42.5117 42.4923 40.8308 44.9515 39.8083C47.3865 38.7629 49.8148 38.262 52.2364 38.3056C54.6579 38.3492 56.9639 38.8341 59.1543 39.7604C61.3204 40.6639 63.2265 41.8948 64.8724 43.4532L65.6712 44.2095C67.1477 45.6075 68.4117 47.3552 69.4633 49.4526C70.515 51.55 71.1847 53.8367 71.4726 56.3126C71.7363 58.7657 71.4502 61.2948 70.6142 63.9001C69.7767 66.4582 68.2321 68.9433 65.9803 71.3557ZM60.4253 66.096C61.608 64.8289 62.4479 63.4896 62.9447 62.078C63.4644 60.642 63.6667 59.2041 63.5518 57.764C63.4596 56.2996 63.0758 54.9034 62.4004 53.5753C61.7249 52.2473 60.8063 51.0332 59.6445 49.9331C58.41 48.7643 57.1025 47.8936 55.722 47.3209C54.34 46.7009 52.9327 46.4012 51.5 46.4218C50.0658 46.395 48.6767 46.6864 47.3326 47.2958C45.9886 47.9053 44.7252 48.8435 43.5424 50.1106C42.3597 51.3777 41.5077 52.7056 40.9867 54.0943C40.4656 55.4829 40.2511 56.9094 40.3433 58.3738C40.434 59.7909 40.8292 61.175 41.5289 62.526C42.2043 63.854 43.1592 65.1025 44.3937 66.2713C45.5555 67.3714 46.8153 68.2199 48.1731 68.817C49.5309 69.414 50.9268 69.7259 52.361 69.7526C53.8179 69.755 55.2305 69.4629 56.5988 68.8764C57.967 68.2899 59.2425 67.3631 60.4253 66.096Z" fill="#104224"/>
<path d="M86.8094 52.9026L72.4886 19.3293L80.0144 16.0731L94.3351 49.6464L86.8094 52.9026ZM93.4174 50.0435L90.5925 43.4209L104.634 37.3453L107.459 43.968L93.4174 50.0435Z" fill="#104224"/>
<path d="M114.935 42.8984L109.861 6.75285L117.979 5.5969L123.053 41.7425L114.935 42.8984Z" fill="#104224"/>
<path d="M141.609 41.5926L142.962 34.0632L149.651 35.2827C151.324 35.5875 152.877 35.6164 154.309 35.3694C155.748 35.0896 157.026 34.577 158.142 33.8318C159.264 33.0537 160.189 32.0533 160.916 30.8307C161.65 29.5752 162.161 28.1437 162.45 26.5361C162.751 24.8629 162.773 23.3253 162.517 21.9234C162.261 20.5214 161.74 19.2744 160.954 18.1824C160.168 17.0905 159.144 16.1923 157.882 15.4879C156.626 14.7507 155.162 14.2297 153.49 13.9248L146.8 12.7054L148.153 5.17597L154.4 6.31472C157.646 6.90651 160.398 7.89929 162.653 9.29306C164.909 10.6868 166.709 12.3534 168.054 14.2926C169.399 16.2319 170.273 18.3395 170.677 20.6155C171.12 22.8646 171.132 25.1539 170.713 27.4832L170.518 28.5659C170.129 30.7312 169.333 32.8054 168.13 34.7885C166.966 36.7447 165.41 38.4264 163.464 39.8335C161.524 41.2078 159.249 42.1823 156.64 42.757C154.03 43.3317 151.102 43.3232 147.856 42.7314L141.609 41.5926ZM134.525 40.3014L141.07 3.8848L149.137 5.3553L142.592 41.7719L134.525 40.3014Z" fill="#104224"/>
<path d="M171.726 48.0112L202.612 25.2612L213.371 32.9938L202.421 70.0712L195.518 65.1106L205.152 34.044L206.656 36.4181L201.418 32.6539L204.218 33.3729L178.384 52.7967L171.726 48.0112ZM184.388 45.9667L190.349 41.8772L201.961 50.2226L200.101 57.2593L184.388 45.9667Z" fill="#104224"/>
<path d="M204.538 73.9407L209.807 70.7699L239.551 75.0462L238.771 75.6908L239.754 73.232L239.587 74.6163L230.403 59.1353L236.144 55.6809L250.455 79.8055L245.185 82.9763L215.416 78.6569L216.257 77.9178L215.196 80.54L215.398 79.0181L224.964 95.1441L219.18 98.6243L204.538 73.9407Z" fill="#104224"/>
<path d="M221.85 107.549L257.877 101.693L259.143 109.592L223.116 115.449L221.85 107.549ZM222.958 114.461L229.669 113.37L232.193 129.119L225.481 130.21L222.958 114.461ZM237.911 112.03L244.623 110.939L246.965 125.553L240.253 126.644L237.911 112.03ZM252.273 109.696L258.985 108.605L261.453 124.008L254.741 125.099L252.273 109.696Z" fill="#104224"/>
<defs>
<filter id="filter0_dd_6_215" x="83.8521" y="67.5097" width="98.1479" height="101.49" filterUnits="userSpaceOnUse" color-interpolation-filters="sRGB">
<feFlood flood-opacity="0" result="BackgroundImageFix"/>
<feColorMatrix in="SourceAlpha" type="matrix" values="0 0 0 0 0 0 0 0 0 0 0 0 0 0 0 0 0 0 127 0" result="hardAlpha"/>
<feMorphology radius="1" operator="erode" in="SourceAlpha" result="effect1_dropShadow_6_215"/>
<feOffset dy="4"/>
<feGaussianBlur stdDeviation="2"/>
<feComposite in2="hardAlpha" operator="out"/>
<feColorMatrix type="matrix" values="0 0 0 0 0.0470588 0 0 0 0 0.0470588 0 0 0 0 0.0509804 0 0 0 0.05 0"/>
<feBlend mode="normal" in2="BackgroundImageFix" result="effect1_dropShadow_6_215"/>
<feColorMatrix in="SourceAlpha" type="matrix" values="0 0 0 0 0 0 0 0 0 0 0 0 0 0 0 0 0 0 127 0" result="hardAlpha"/>
<feMorphology radius="1" operator="erode" in="SourceAlpha" result="effect2_dropShadow_6_215"/>
<feOffset dy="4"/>
<feGaussianBlur stdDeviation="2"/>
<feComposite in2="hardAlpha" operator="out"/>
<feColorMatrix type="matrix" values="0 0 0 0 0.0470588 0 0 0 0 0.0470588 0 0 0 0 0.0509804 0 0 0 0.1 0"/>
<feBlend mode="normal" in2="effect1_dropShadow_6_215" result="effect2_dropShadow_6_215"/>
<feBlend mode="normal" in="SourceGraphic" in2="effect2_dropShadow_6_215" result="shape"/>
</filter>
</defs>
</svg>
